<svg width="61" height="139" viewBox="0 0 61 139" fill="none" xmlns="http://www.w3.org/2000/svg">
<circle cx="2.33222" cy="2.50916" r="2.10975" fill="#6D6D6D" fill-opacity="0.15"/>
<circle cx="2.33219" cy="73.9921" r="2.10975" fill="#6D6D6D" fill-opacity="0.15"/>
<circle cx="10.2748" cy="2.50916" r="2.10975" fill="#6D6D6D" fill-opacity="0.15"/>
<circle cx="10.2748" cy="73.9921" r="2.10975" fill="#6D6D6D" fill-opacity="0.15"/>
<circle cx="18.2173" cy="2.50916" r="2.10975" fill="#6D6D6D" fill-opacity="0.15"/>
<circle cx="18.2173" cy="73.9921" r="2.10975" fill="#6D6D6D" fill-opacity="0.15"/>
<circle cx="26.1598" cy="2.50916" r="2.10975" fill="#6D6D6D" fill-opacity="0.15"/>
<circle cx="26.1598" cy="73.9921" r="2.10975" fill="#6D6D6D" fill-opacity="0.15"/>
<circle cx="34.1024" cy="2.50916" r="2.10975" fill="#6D6D6D" fill-opacity="0.15"/>
<circle cx="34.1024" cy="73.9921" r="2.10975" fill="#6D6D6D" fill-opacity="0.15"/>
<circle cx="42.0451" cy="2.50916" r="2.10975" fill="#6D6D6D" fill-opacity="0.15"/>
<circle cx="42.0451" cy="73.9921" r="2.10975" fill="#6D6D6D" fill-opacity="0.15"/>
<circle cx="49.9876" cy="2.50916" r="2.10975" fill="#6D6D6D" fill-opacity="0.15"/>
<circle cx="49.9876" cy="73.9921" r="2.10975" fill="#6D6D6D" fill-opacity="0.15"/>
<circle cx="57.9302" cy="2.50916" r="2.10975" fill="#6D6D6D" fill-opacity="0.15"/>
<circle cx="57.9302" cy="73.9921" r="2.10975" fill="#6D6D6D" fill-opacity="0.15"/>
<circle cx="2.33219" cy="11.4445" r="2.10975" fill="#6D6D6D" fill-opacity="0.15"/>
<circle cx="2.33219" cy="82.9276" r="2.10975" fill="#6D6D6D" fill-opacity="0.15"/>
<circle cx="10.2748" cy="11.4445" r="2.10975" fill="#6D6D6D" fill-opacity="0.15"/>
<circle cx="10.2748" cy="82.9276" r="2.10975" fill="#6D6D6D" fill-opacity="0.15"/>
<circle cx="18.2173" cy="11.4445" r="2.10975" fill="#6D6D6D" fill-opacity="0.15"/>
<circle cx="18.2173" cy="82.9276" r="2.10975" fill="#6D6D6D" fill-opacity="0.15"/>
<circle cx="26.1598" cy="11.4445" r="2.10975" fill="#6D6D6D" fill-opacity="0.15"/>
<circle cx="26.1598" cy="82.9276" r="2.10975" fill="#6D6D6D" fill-opacity="0.15"/>
<circle cx="34.1024" cy="11.4445" r="2.10975" fill="#6D6D6D" fill-opacity="0.15"/>
<circle cx="34.1024" cy="82.9276" r="2.10975" fill="#6D6D6D" fill-opacity="0.15"/>
<circle cx="42.0451" cy="11.4445" r="2.10975" fill="#6D6D6D" fill-opacity="0.15"/>
<circle cx="42.0451" cy="82.9276" r="2.10975" fill="#6D6D6D" fill-opacity="0.15"/>
<circle cx="49.9876" cy="11.4445" r="2.10975" fill="#6D6D6D" fill-opacity="0.15"/>
<circle cx="49.9876" cy="82.9276" r="2.10975" fill="#6D6D6D" fill-opacity="0.15"/>
<circle cx="57.9302" cy="11.4445" r="2.10975" fill="#6D6D6D" fill-opacity="0.15"/>
<circle cx="57.9302" cy="82.9276" r="2.10975" fill="#6D6D6D" fill-opacity="0.15"/>
<circle cx="2.33219" cy="20.38" r="2.10975" fill="#6D6D6D" fill-opacity="0.15"/>
<circle cx="2.33219" cy="91.8632" r="2.10975" fill="#6D6D6D" fill-opacity="0.15"/>
<circle cx="10.2748" cy="20.38" r="2.10975" fill="#6D6D6D" fill-opacity="0.15"/>
<circle cx="10.2748" cy="91.8632" r="2.10975" fill="#6D6D6D" fill-opacity="0.15"/>
<circle cx="18.2173" cy="20.38" r="2.10975" fill="#6D6D6D" fill-opacity="0.15"/>
<circle cx="18.2173" cy="91.8632" r="2.10975" fill="#6D6D6D" fill-opacity="0.15"/>
<circle cx="26.1598" cy="20.38" r="2.10975" fill="#6D6D6D" fill-opacity="0.15"/>
<circle cx="26.1598" cy="91.8632" r="2.10975" fill="#6D6D6D" fill-opacity="0.15"/>
<circle cx="34.1024" cy="20.38" r="2.10975" fill="#6D6D6D" fill-opacity="0.15"/>
<circle cx="34.1024" cy="91.8632" r="2.10975" fill="#6D6D6D" fill-opacity="0.15"/>
<circle cx="42.0451" cy="20.38" r="2.10975" fill="#6D6D6D" fill-opacity="0.15"/>
<circle cx="42.0451" cy="91.8632" r="2.10975" fill="#6D6D6D" fill-opacity="0.15"/>
<circle cx="49.9876" cy="20.38" r="2.10975" fill="#6D6D6D" fill-opacity="0.15"/>
<circle cx="49.9876" cy="91.8632" r="2.10975" fill="#6D6D6D" fill-opacity="0.15"/>
<circle cx="57.9302" cy="20.38" r="2.10975" fill="#6D6D6D" fill-opacity="0.15"/>
<circle cx="57.9302" cy="91.8632" r="2.10975" fill="#6D6D6D" fill-opacity="0.15"/>
<circle cx="2.33219" cy="29.3151" r="2.10975" fill="#6D6D6D" fill-opacity="0.15"/>
<circle cx="2.33219" cy="100.799" r="2.10975" fill="#6D6D6D" fill-opacity="0.15"/>
<circle cx="10.2748" cy="29.3151" r="2.10975" fill="#6D6D6D" fill-opacity="0.15"/>
<circle cx="10.2748" cy="100.799" r="2.10975" fill="#6D6D6D" fill-opacity="0.15"/>
<circle cx="18.2173" cy="29.3151" r="2.10975" fill="#6D6D6D" fill-opacity="0.15"/>
<circle cx="18.2173" cy="100.799" r="2.10975" fill="#6D6D6D" fill-opacity="0.15"/>
<circle cx="26.1598" cy="29.3151" r="2.10975" fill="#6D6D6D" fill-opacity="0.15"/>
<circle cx="26.1598" cy="100.799" r="2.10975" fill="#6D6D6D" fill-opacity="0.15"/>
<circle cx="34.1024" cy="29.3151" r="2.10975" fill="#6D6D6D" fill-opacity="0.15"/>
<circle cx="34.1024" cy="100.799" r="2.10975" fill="#6D6D6D" fill-opacity="0.15"/>
<circle cx="42.0451" cy="29.3151" r="2.10975" fill="#6D6D6D" fill-opacity="0.15"/>
<circle cx="42.0451" cy="100.799" r="2.10975" fill="#6D6D6D" fill-opacity="0.15"/>
<circle cx="49.9876" cy="29.3151" r="2.10975" fill="#6D6D6D" fill-opacity="0.15"/>
<circle cx="49.9876" cy="100.799" r="2.10975" fill="#6D6D6D" fill-opacity="0.15"/>
<circle cx="57.9302" cy="29.3151" r="2.10975" fill="#6D6D6D" fill-opacity="0.15"/>
<circle cx="57.9302" cy="100.799" r="2.10975" fill="#6D6D6D" fill-opacity="0.15"/>
<circle cx="2.33219" cy="38.2509" r="2.10975" fill="#6D6D6D" fill-opacity="0.15"/>
<circle cx="2.33219" cy="109.734" r="2.10975" fill="#6D6D6D" fill-opacity="0.15"/>
<circle cx="10.2748" cy="38.2509" r="2.10975" fill="#6D6D6D" fill-opacity="0.15"/>
<circle cx="10.2748" cy="109.734" r="2.10975" fill="#6D6D6D" fill-opacity="0.15"/>
<circle cx="18.2173" cy="38.2509" r="2.10975" fill="#6D6D6D" fill-opacity="0.15"/>
<circle cx="18.2173" cy="109.734" r="2.10975" fill="#6D6D6D" fill-opacity="0.15"/>
<circle cx="26.1598" cy="38.2509" r="2.10975" fill="#6D6D6D" fill-opacity="0.15"/>
<circle cx="26.1598" cy="109.734" r="2.10975" fill="#6D6D6D" fill-opacity="0.15"/>
<circle cx="34.1024" cy="38.2509" r="2.10975" fill="#6D6D6D" fill-opacity="0.15"/>
<circle cx="34.1024" cy="109.734" r="2.10975" fill="#6D6D6D" fill-opacity="0.15"/>
<circle cx="42.0451" cy="38.2509" r="2.10975" fill="#6D6D6D" fill-opacity="0.15"/>
<circle cx="42.0451" cy="109.734" r="2.10975" fill="#6D6D6D" fill-opacity="0.15"/>
<circle cx="49.9876" cy="38.2509" r="2.10975" fill="#6D6D6D" fill-opacity="0.15"/>
<circle cx="49.9876" cy="109.734" r="2.10975" fill="#6D6D6D" fill-opacity="0.15"/>
<circle cx="57.9302" cy="38.2509" r="2.10975" fill="#6D6D6D" fill-opacity="0.15"/>
<circle cx="57.9302" cy="109.734" r="2.10975" fill="#6D6D6D" fill-opacity="0.15"/>
<circle cx="2.33219" cy="47.1864" r="2.10975" fill="#6D6D6D" fill-opacity="0.15"/>
<circle cx="2.33219" cy="118.67" r="2.10975" fill="#6D6D6D" fill-opacity="0.15"/>
<circle cx="10.2748" cy="47.1864" r="2.10975" fill="#6D6D6D" fill-opacity="0.15"/>
<circle cx="10.2748" cy="118.67" r="2.10975" fill="#6D6D6D" fill-opacity="0.15"/>
<circle cx="18.2173" cy="47.1864" r="2.10975" fill="#6D6D6D" fill-opacity="0.15"/>
<circle cx="18.2173" cy="118.67" r="2.10975" fill="#6D6D6D" fill-opacity="0.15"/>
<circle cx="26.1598" cy="47.1864" r="2.10975" fill="#6D6D6D" fill-opacity="0.15"/>
<circle cx="26.1598" cy="118.67" r="2.10975" fill="#6D6D6D" fill-opacity="0.15"/>
<circle cx="34.1024" cy="47.1864" r="2.10975" fill="#6D6D6D" fill-opacity="0.15"/>
<circle cx="34.1024" cy="118.67" r="2.10975" fill="#6D6D6D" fill-opacity="0.15"/>
<circle cx="42.0451" cy="47.1864" r="2.10975" fill="#6D6D6D" fill-opacity="0.15"/>
<circle cx="42.0451" cy="118.67" r="2.10975" fill="#6D6D6D" fill-opacity="0.15"/>
<circle cx="49.9876" cy="47.1864" r="2.10975" fill="#6D6D6D" fill-opacity="0.15"/>
<circle cx="49.9876" cy="118.67" r="2.10975" fill="#6D6D6D" fill-opacity="0.15"/>
<circle cx="57.9302" cy="47.1864" r="2.10975" fill="#6D6D6D" fill-opacity="0.15"/>
<circle cx="57.9302" cy="118.67" r="2.10975" fill="#6D6D6D" fill-opacity="0.15"/>
<circle cx="2.33219" cy="56.1215" r="2.10975" fill="#6D6D6D" fill-opacity="0.15"/>
<circle cx="2.33219" cy="127.605" r="2.10975" fill="#6D6D6D" fill-opacity="0.15"/>
<circle cx="10.2748" cy="56.1215" r="2.10975" fill="#6D6D6D" fill-opacity="0.15"/>
<circle cx="10.2748" cy="127.605" r="2.10975" fill="#6D6D6D" fill-opacity="0.15"/>
<circle cx="18.2173" cy="56.1215" r="2.10975" fill="#6D6D6D" fill-opacity="0.15"/>
<circle cx="18.2173" cy="127.605" r="2.10975" fill="#6D6D6D" fill-opacity="0.15"/>
<circle cx="26.1598" cy="56.1215" r="2.10975" fill="#6D6D6D" fill-opacity="0.15"/>
<circle cx="26.1598" cy="127.605" r="2.10975" fill="#6D6D6D" fill-opacity="0.15"/>
<circle cx="34.1024" cy="56.1215" r="2.10975" fill="#6D6D6D" fill-opacity="0.15"/>
<circle cx="34.1024" cy="127.605" r="2.10975" fill="#6D6D6D" fill-opacity="0.15"/>
<circle cx="42.0451" cy="56.1215" r="2.10975" fill="#6D6D6D" fill-opacity="0.15"/>
<circle cx="42.0451" cy="127.605" r="2.10975" fill="#6D6D6D" fill-opacity="0.15"/>
<circle cx="49.9876" cy="56.1215" r="2.10975" fill="#6D6D6D" fill-opacity="0.15"/>
<circle cx="49.9876" cy="127.605" r="2.10975" fill="#6D6D6D" fill-opacity="0.15"/>
<circle cx="57.9302" cy="56.1215" r="2.10975" fill="#6D6D6D" fill-opacity="0.15"/>
<circle cx="57.9302" cy="127.605" r="2.10975" fill="#6D6D6D" fill-opacity="0.15"/>
<circle cx="2.33219" cy="65.057" r="2.10975" fill="#6D6D6D" fill-opacity="0.15"/>
<circle cx="2.33219" cy="136.54" r="2.10975" fill="#6D6D6D" fill-opacity="0.15"/>
<circle cx="10.2748" cy="65.057" r="2.10975" fill="#6D6D6D" fill-opacity="0.15"/>
<circle cx="10.2748" cy="136.54" r="2.10975" fill="#6D6D6D" fill-opacity="0.15"/>
<circle cx="18.2173" cy="65.057" r="2.10975" fill="#6D6D6D" fill-opacity="0.15"/>
<circle cx="18.2173" cy="136.54" r="2.10975" fill="#6D6D6D" fill-opacity="0.15"/>
<circle cx="26.1598" cy="65.057" r="2.10975" fill="#6D6D6D" fill-opacity="0.15"/>
<circle cx="26.1598" cy="136.54" r="2.10975" fill="#6D6D6D" fill-opacity="0.15"/>
<circle cx="34.1024" cy="65.057" r="2.10975" fill="#6D6D6D" fill-opacity="0.15"/>
<circle cx="34.1024" cy="136.54" r="2.10975" fill="#6D6D6D" fill-opacity="0.15"/>
<circle cx="42.0451" cy="65.057" r="2.10975" fill="#6D6D6D" fill-opacity="0.15"/>
<circle cx="42.0451" cy="136.54" r="2.10975" fill="#6D6D6D" fill-opacity="0.15"/>
<circle cx="49.9876" cy="65.057" r="2.10975" fill="#6D6D6D" fill-opacity="0.15"/>
<circle cx="49.9876" cy="136.54" r="2.10975" fill="#6D6D6D" fill-opacity="0.15"/>
<circle cx="57.9302" cy="65.057" r="2.10975" fill="#6D6D6D" fill-opacity="0.15"/>
<circle cx="57.9302" cy="136.54" r="2.10975" fill="#6D6D6D" fill-opacity="0.15"/>
</svg>
