<svg width="31" height="25" viewBox="0 0 31 25" fill="none" xmlns="http://www.w3.org/2000/svg">
<path d="M13.2365 9.37441C12.4297 9.37441 11.7696 10.0345 11.7696 10.8413V14.5085C11.7696 14.9137 11.4414 15.2419 11.0362 15.2419C10.631 15.2419 10.3027 14.9137 10.3027 14.5085V10.9994C10.3027 10.2023 10.5191 9.41934 10.9303 8.73541L14.4943 2.79503C14.911 2.10009 14.6864 1.19934 13.9915 0.7822C13.3291 0.384768 12.4916 0.585088 12.0525 1.20438C12.0433 1.21493 12.024 1.21401 12.0162 1.22639L6.64106 9.28961C6.15699 10.0157 5.90212 10.8596 5.90212 11.7297V15.4074L1.77104 16.7844C1.47894 16.8816 1.22485 17.0683 1.04482 17.318C0.864788 17.5677 0.767959 17.8678 0.768066 18.1757V22.5763C0.768066 23.0723 1.15862 24.0431 2.23494 24.0431C2.35825 24.0431 2.48293 24.0276 2.60441 23.9959L10.8184 21.8589C13.1063 21.2048 14.7034 19.0874 14.7034 16.7088V10.8413C14.7034 10.0345 14.0433 9.37441 13.2365 9.37441ZM29.1026 16.7881L24.9715 15.4111V11.7333C24.9715 10.8633 24.7166 10.0194 24.2325 9.29328L18.8574 1.23051C18.8491 1.21814 18.8303 1.21951 18.8212 1.20851C18.382 0.589214 17.5445 0.388894 16.8821 0.786325C16.1872 1.20301 15.9626 2.10422 16.3793 2.79915L19.9433 8.73953C20.3545 9.42346 20.5709 10.2064 20.5709 11.0036V14.5126C20.5709 14.9178 20.2426 15.246 19.8374 15.246C19.4322 15.246 19.104 14.9178 19.104 14.5126V10.8454C19.104 10.0386 18.4439 9.37854 17.6371 9.37854C16.8303 9.37854 16.1702 10.0386 16.1702 10.8454V16.7129C16.1702 19.0915 17.7673 21.2089 20.0552 21.8626L28.2692 23.9996C28.3911 24.0312 28.5158 24.0468 28.6387 24.0468C29.715 24.0468 30.1055 23.0759 30.1055 22.5799V18.1793C30.1055 17.5481 29.7017 16.9879 29.1026 16.7881Z" fill="#816D0E" fill-opacity="0.45"/>
</svg>
